PathFileType	4	(X/Y/Z)	Trial58_Right_Knee_markers_cropped.trc
DataRate	CameraRate	NumFrames	NumMarkers	Units	OrigDataRate	OrigDataStartFrame	OrigNumFrames																																																																																													
200	200	6	27	m	200	88	101
Frame#	Time	R_ASIS			L_ASIS			Sacral			L_Thigh_Superior			L_Thigh_Inferior			L_Thigh_Lateral			L_Shank_Superior			L_Shank_Inferior			L_Shank_Lateral			L_Heel			L_Midfoot_Superior			L_Midfoot_Lateral			L_Toe			R_Thigh_Superior			R_Thigh_Inferior			R_Thigh_Lateral			R_Shank_Superior			R_Shank_Lateral			R_Shank_Inferior			R_Heel			R_Midfoot_Superior			R_Midfoot_Lateral			R_Toe
		X1	Y1	Z1	X2	Y2	Z2	X3	Y3	Z3	X4	Y4	Z4	X5	Y5	Z5	X6	Y6	Z6	X7	Y7	Z7	X8	Y8	Z8	X9	Y9	Z9	X10	Y10	Z10	X11	Y11	Z11	X12	Y12	Z12	X13	Y13	Z13	X14	Y14	Z14	X15	Y15	Z15	X16	Y16	Z16	X17	Y17	Z17	X18	Y18	Z18	X19	Y19	Z19	X20	Y20	Z20	X21	Y21	Z21	X22	Y22	Z22	X23	Y23	Z23

89	   0.440	   -0.62119816661557	    0.94803640692293	   -0.51011700658231	   -0.59127905743786	    0.94364889883536	   -0.78185079324652	   -0.81945595949084	    1.02355789729753	   -0.67022428945721	   -0.55829284870913	    0.73752014081411	   -0.73255866496350	   -0.57074563947284	    0.54712335298908	   -0.71492315028934	   -0.63958619781618	    0.62897600797242	   -0.79475059816791	   -0.59265166609994	    0.41157828034581	   -0.70443571546790	   -0.61565127189920	    0.18875258347678	   -0.66199263620918	   -0.67061820019688	    0.28665417415977	   -0.74892917632464	   -0.73832827956648	    0.03178396111590	   -0.60979753700001	   -0.58072770191364	    0.09041804203561	   -0.66301937068569	   -0.66123615139366	    0.02820053300430	   -0.68928158770918	   -0.73832827956648	    0.03178396111590	   -0.60979753700001	   -0.53590000054467	    0.78078154072081	   -0.54047137499121	   -0.49194338340534	    0.61919361347089	   -0.55157346263092	   -0.58192025363645	    0.65939513596259	   -0.47057799056355	   -0.54708210874087	    0.43692811501336	   -0.50826631457857	   -0.67346081315726	    0.28163152214744	   -0.48746564166255	   -0.67315608773767	    0.39640530183189	   -0.45221233106832	   -0.86492109628745	    0.19654946995956	   -0.52534530121341	   -0.69808889332493	    0.16883532957220	   -0.45680137125069	   -0.80997321356969	    0.16249574653014	   -0.43477076067850	   -0.62646429567574	    0.07356945915553	   -0.39945390416611
90	   0.445	   -0.62128302062535	    0.94882597055672	   -0.50933484112479	   -0.59075452116591	    0.94385266420795	   -0.78099346601160	   -0.81920830982104	    1.02338553492737	   -0.67001549664560	   -0.55789569888087	    0.73758489061455	   -0.73179035404402	   -0.57032825770231	    0.54716409278494	   -0.71434319929520	   -0.63917225906877	    0.62912355018956	   -0.79414820187106	   -0.59235443615543	    0.41155700954145	   -0.70400586613800	   -0.61565394165516	    0.18864219865162	   -0.66180789445704	   -0.67041727619437	    0.28676889549433	   -0.74856721975963	   -0.73831405515760	    0.03178247311804	   -0.60978469114093	   -0.58072351697985	    0.09040524012322	   -0.66296931970912	   -0.66123320154079	    0.02821496690470	   -0.68927398880822	   -0.73831405515760	    0.03178247311804	   -0.60978469114093	   -0.53580125179632	    0.78120690967163	   -0.53925096129540	   -0.49237448280467	    0.61954901183017	   -0.55075380512742	   -0.58246447319170	    0.65941819680514	   -0.47004493412752	   -0.54254827430313	    0.43672776396643	   -0.50786641322807	   -0.66027645591662	    0.27475406995959	   -0.48646257888205	   -0.66585537872394	    0.38947275401888	   -0.45078099980677	   -0.84738800718888	    0.17912413260738	   -0.52285450005107	   -0.67825002905180	    0.16087799393638	   -0.45603367262986	   -0.78966550871848	    0.14808006016500	   -0.43292628299513	   -0.60090666125533	    0.06954001524304	   -0.39967388636196
91	   0.450	   -0.62132547017615	    0.94964673678002	   -0.50853930936995	   -0.59026355078259	    0.94407429035159	   -0.78012548775536	   -0.81896381184124	    1.02322203353508	   -0.66972982095531	   -0.55752182807768	    0.73765081915121	   -0.73099567212141	   -0.56994020258788	    0.54721239638631	   -0.71373462232332	   -0.63878707760476	    0.62927409127535	   -0.79350629316244	   -0.59206953783694	    0.41154920049479	   -0.70354708324501	   -0.61574981731884	    0.18849932575979	   -0.66157855142711	   -0.67023392610243	    0.28689273832804	   -0.74816992157495	   -0.73829665163744	    0.03177881558091	   -0.60976904737893	   -0.58071783411888	    0.09040098684620	   -0.66292003869420	   -0.66123182823958	    0.02823011043944	   -0.68926508396553	   -0.73829665163744	    0.03177881558091	   -0.60976904737893	   -0.53569408867033	    0.78159139064391	   -0.53809438200881	   -0.49294279219213	    0.61985389906429	   -0.55009548624805	   -0.58302663508322	    0.65943673186470	   -0.46958189712505	   -0.53824917689333	    0.43665855044536	   -0.50768268095737	   -0.64718442624000	    0.26869535687392	   -0.48573987776655	   -0.65842557559676	    0.38303752581402	   -0.44946222986456	   -0.82957203650072	    0.16312947928800	   -0.52055681216719	   -0.65866995132798	    0.15405394076002	   -0.45564122209929	   -0.76921460561461	    0.13505251888150	   -0.43137599029883	   -0.57592365217971	    0.06677039634178	   -0.40046835217174
92	   0.455	   -0.62132132079168	    0.95049169641572	   -0.50774852562967	   -0.58980655052494	    0.94431163979333	   -0.77926737642634	   -0.81873942056191	    1.02306763845773	   -0.66938055312528	   -0.55716264916150	    0.73772121502066	   -0.73018500485682	   -0.56957958953678	    0.54726804768176	   -0.71311068955579	   -0.63842231371502	    0.62942387748576	   -0.79283560185931	   -0.59179106309890	    0.41155319535437	   -0.70306386172808	   -0.61590077703994	    0.18834036322057	   -0.66131167231429	   -0.67006289576017	    0.28702284083929	   -0.74774253990507	   -0.73827656193260	    0.03177268966883	   -0.60975095258758	   -0.58070957268159	    0.09040608540530	   -0.66287203073047	   -0.66123214669517	    0.02824585450688	   -0.68925520286594	   -0.73827656193260	    0.03177268966883	   -0.60975095258758	   -0.53556458708106	    0.78193310129378	   -0.53702590340261	   -0.49363370150504	    0.62011527372877	   -0.54960217509432	   -0.58356859134998	    0.65946362536975	   -0.46918101616843	   -0.53418884749445	    0.43671955846005	   -0.50770577058347	   -0.63428179682791	    0.26345026565704	   -0.48530503856420	   -0.65090974782116	    0.37712579767520	   -0.44826987831145	   -0.81164791552479	    0.14861621328639	   -0.51848752193024	   -0.63948662312594	    0.14832931561592	   -0.45564306519241	   -0.74878772701614	    0.12342683585061	   -0.43015904135003	   -0.55168734551269	    0.06517018587370	   -0.40185306570114
93	   0.460	   -0.62127088555221	    0.95135285038238	   -0.50697880227270	   -0.58938334853264	    0.94456206997281	   -0.77843639070687	   -0.81855053150148	    1.02292308916001	   -0.66898316712195	   -0.55680860822482	    0.73779887991881	   -0.72936913304235	   -0.56924388518042	    0.54733020718448	   -0.71248223381993	   -0.63807027478140	    0.62957023971361	   -0.79214757252114	   -0.59151622078739	    0.41156686330620	   -0.70256039557289	   -0.61606702176363	    0.18818388079513	   -0.66101499465557	   -0.66989914519637	    0.28715636362006	   -0.74729144309166	   -0.73825473288655	    0.03176417030706	   -0.60973099788853	   -0.58069832448992	    0.09041985880062	   -0.66282464776029	   -0.66123414174830	    0.02826207843194	   -0.68924458818465	   -0.73825473288655	    0.03176417030706	   -0.60973099788853	   -0.53540615271079	    0.78223044550499	   -0.53605819846480	   -0.49442657510721	    0.62034591411280	   -0.54926374183640	   -0.58406368460161	    0.65950930651577	   -0.46882924633011	   -0.53035516009132	    0.43691035987880	   -0.50792291355112	   -0.62164790709361	    0.25899035654748	   -0.48515986711109	   -0.64334392405015	    0.37174486316465	   -0.44721425556401	   -0.79377491584881	    0.13558587992558	   -0.51667412652826	   -0.62080687380011	    0.14364316602691	   -0.45605279050990	   -0.72852575487819	    0.11317088243030	   -0.42930966450215	   -0.52831664984691	    0.06462554844165	   -0.40384123919813
94	   0.465	   -0.62117834033758	    0.95222125498401	   -0.50624379055662	   -0.58899332751365	    0.94482286320165	   -0.77764573128145	   -0.81840580085316	    1.02278813730957	   -0.66855291782538	   -0.55645107732194	    0.73788564990572	   -0.72855808848352	   -0.56892947086869	    0.54739779556371	   -0.71185744741845	   -0.63772456048881	    0.62971181872238	   -0.79145324004396	   -0.59124426821563	    0.41158818793426	   -0.70204086726657	   -0.61621858728220	    0.18804521208525	   -0.66069516238143	   -0.66973820002132	    0.28729083436697	   -0.74682349741348	   -0.73823243187390	    0.03175374001630	   -0.60970993084992	   -0.58068427222707	    0.09044019101222	   -0.66277637626670	   -0.66123757305537	    0.02827864995175	   -0.68923337455962	   -0.73823243187390	    0.03175374001630	   -0.60970993084992	   -0.53521921956364	    0.78248268115711	   -0.53519219022991	   -0.49529292609880	    0.62056347627427	   -0.54906023316465	   -0.58449612930369	    0.65958065352271	   -0.46851085596128	   -0.52672668640242	    0.43722893656100	   -0.50831923210954	   -0.60934168031497	    0.25526684693404	   -0.48530035181944	   -0.63575761253494	    0.36688467799469	   -0.44630181877024	   -0.77608847570793	    0.12399265658068	   -0.51513571899561	   -0.60270354489856	    0.13991319468868	   -0.45687497220097	   -0.70853988401785	    0.10421185322605	   -0.42885337674612	   -0.50587825641705	    0.06500806573595	   -0.40643503233886
